<?xml version="1.0" encoding="iso-8859-1"?>
<!-- Generator: Adobe Illustrator 19.0.0, SVG Export Plug-In . SVG Version: 6.00 Build 0)  -->
<svg version="1.1" id="Capa_1" xmlns="http://www.w3.org/2000/svg" xmlns:xlink="http://www.w3.org/1999/xlink" x="0px" y="0px"
	 viewBox="0 0 511 511" style="enable-background:new 0 0 511 511;" xml:space="preserve">
<g>
	<path d="M417.862,126.931C394.67,101.826,362.579,88,327.5,88c-8.313,0-16.456,0.786-24.355,2.305
		c-8.574-27.031-24.012-49.65-44.822-65.531C237.085,8.566,211.212,0,183.5,0c-35.079,0-67.17,13.826-90.362,38.931
		C68.842,65.23,56,101.39,56,143.5c0,42.465,13.293,86.108,36.472,119.736c20.562,29.832,46.316,48.531,73.86,54.043
		c-0.014,0.054-0.033,0.105-0.047,0.158l-6.061,24.244c-0.561,2.24-0.057,4.614,1.364,6.435S165.19,351,167.5,351h8.5v152.5
		c0,4.142,3.358,7.5,7.5,7.5s7.5-3.358,7.5-7.5V351h8.5c2.31,0,4.49-1.064,5.912-2.884s1.925-4.194,1.364-6.435l-6.061-24.244
		c-0.014-0.057-0.035-0.111-0.05-0.168c5.137-1.039,10.233-2.549,15.266-4.515c5.542,13.732,12.434,26.721,20.541,38.482
		c20.562,29.832,46.316,48.531,73.86,54.043c-0.014,0.054-0.033,0.105-0.047,0.158l-6.061,24.244
		c-0.561,2.24-0.057,4.614,1.364,6.435S309.19,439,311.5,439h8.5v64.5c0,4.142,3.358,7.5,7.5,7.5s7.5-3.358,7.5-7.5V439h8.5
		c2.31,0,4.49-1.064,5.912-2.884s1.925-4.194,1.364-6.435l-6.061-24.244c-0.013-0.054-0.033-0.105-0.047-0.158
		c27.544-5.511,53.299-24.21,73.86-54.043C441.707,317.608,455,273.965,455,231.5C455,189.39,442.158,153.23,417.862,126.931z
		 M177.106,336l3.731-14.925c0.306-1.222,1.399-2.075,2.668-2.075c1.259,0,2.353,0.854,2.658,2.075L189.894,336H177.106z M183.5,304
		c-28.834,0-56.776-17.5-78.678-49.276C83.328,223.538,71,182.999,71,143.5c0-38.271,11.465-70.911,33.156-94.391
		C124.476,27.113,152.654,15,183.5,15c49.324,0,89.277,30.184,105.095,79.03c-5.426,1.75-10.7,3.869-15.792,6.349
		c-5.753-18.471-15.412-34.167-28.278-45.769c-3.076-2.773-7.818-2.529-10.593,0.547c-2.774,3.076-2.529,7.818,0.547,10.593
		c11.569,10.433,20.119,24.971,24.937,42.258c-8.077,5.321-15.553,11.644-22.278,18.923C212.842,153.23,200,189.39,200,231.5
		c0,22.616,3.772,45.565,10.798,67.157C201.836,302.201,192.675,304,183.5,304z M321.106,424l3.731-14.925
		c0.306-1.222,1.399-2.075,2.668-2.075c1.259,0,2.353,0.854,2.658,2.075L333.894,424H321.106z M406.178,342.724
		C384.276,374.5,356.334,392,327.5,392s-56.776-17.5-78.678-49.276C227.328,311.538,215,270.999,215,231.5
		c0-38.271,11.465-70.911,33.156-94.391c6.824-7.387,14.539-13.654,22.939-18.727c0.535-0.237,1.031-0.534,1.485-0.879
		C288.854,108.038,307.621,103,327.5,103c30.846,0,59.024,12.113,79.344,34.109C428.535,160.589,440,193.229,440,231.5
		C440,270.999,427.672,311.538,406.178,342.724z"/>
	<path d="M362.223,126.337c-5.542-2.173-11.404-3.81-17.426-4.864c-4.082-0.714-7.967,2.014-8.682,6.094
		c-0.714,4.08,2.014,7.967,6.094,8.682c5.036,0.882,9.927,2.246,14.537,4.054c0.899,0.353,1.825,0.52,2.736,0.52
		c2.995,0,5.825-1.807,6.984-4.764C367.979,132.201,366.079,127.849,362.223,126.337z"/>
	<path d="M306.99,354.518c-20.746-10.891-40.302-37.486-51.035-69.407c-1.32-3.927-5.575-6.04-9.499-4.719
		c-3.926,1.32-6.039,5.573-4.719,9.499c12.097,35.977,33.884,65.101,58.281,77.908c1.112,0.584,2.305,0.861,3.479,0.861
		c2.698,0,5.306-1.46,6.647-4.016C312.07,360.977,310.657,356.443,306.99,354.518z"/>
	<path d="M388.525,142.609c-3.077-2.774-7.818-2.529-10.593,0.547c-2.774,3.076-2.529,7.819,0.547,10.593
		C397.516,170.916,408,198.529,408,231.5c0,4.142,3.358,7.5,7.5,7.5s7.5-3.358,7.5-7.5C423,194.227,410.757,162.658,388.525,142.609
		z"/>
	<path d="M162.99,266.518c-20.746-10.891-40.302-37.486-51.035-69.407c-1.32-3.927-5.574-6.041-9.499-4.719
		c-3.926,1.32-6.039,5.573-4.719,9.499c12.097,35.977,33.884,65.101,58.281,77.908c1.112,0.584,2.305,0.861,3.479,0.861
		c2.698,0,5.306-1.46,6.647-4.016C168.07,272.977,166.657,268.443,162.99,266.518z"/>
	<path d="M215.482,52.821c2.995,0,5.825-1.807,6.984-4.764c1.512-3.856-0.388-8.208-4.244-9.721
		c-5.542-2.173-11.404-3.81-17.426-4.864c-4.081-0.716-7.967,2.014-8.682,6.094c-0.714,4.08,2.014,7.967,6.094,8.682
		c5.036,0.882,9.927,2.246,14.537,4.054C213.646,52.654,214.571,52.821,215.482,52.821z"/>
</g>
<g>
</g>
<g>
</g>
<g>
</g>
<g>
</g>
<g>
</g>
<g>
</g>
<g>
</g>
<g>
</g>
<g>
</g>
<g>
</g>
<g>
</g>
<g>
</g>
<g>
</g>
<g>
</g>
<g>
</g>
</svg>
