<?xml version="1.0" ?><svg width="512px" height="512px" viewBox="0 0 512 512" id="Layer_1" style="enable-background:new 0 0 512 512;" version="1.1" xml:space="preserve" xmlns="http://www.w3.org/2000/svg" xmlns:xlink="http://www.w3.org/1999/xlink"><style type="text/css">
	.st0{fill:#2B79C2;}
	.st1{fill:#3B4652;}
	.st2{fill:#333333;}
</style><g><circle class="st0" cx="80.7" cy="256" r="49.7"/><circle class="st0" cx="431.3" cy="256" r="49.7"/><path class="st1" d="M431.3,371.8c-24.7,0-45.3,18.1-49.1,41.8c-0.2,0-0.4,0-0.6,0h-75.8c-0.2,0-0.4,0-0.6,0   c-3.8-23.7-24.3-41.8-49.1-41.8s-45.3,18.1-49.1,41.8c-0.2,0-0.4,0-0.6,0h-75.8c-0.2,0-0.4,0-0.6,0c-1.2-7.3-3.9-14.1-7.9-19.9   c0.2-0.1,0.3-0.3,0.5-0.4l103-97.3c0.2-0.2,0.3-0.3,0.5-0.5c8.4,6.4,18.8,10.2,30.2,10.2c27.5,0,49.7-22.3,49.7-49.7   c0-10.3-3.2-19.9-8.6-27.9c0.2-0.1,0.3-0.3,0.5-0.4l103-97.3c0.2-0.2,0.3-0.3,0.5-0.5c8.4,6.4,18.8,10.2,30.2,10.2   c27.5,0,49.7-22.3,49.7-49.7s-22.3-49.7-49.7-49.7c-24.7,0-45.3,18.1-49.1,41.8c-0.2,0-0.4,0-0.6,0h-75.8c-0.2,0-0.4,0-0.6,0   c-3.8-23.7-24.3-41.8-49.1-41.8s-45.3,18.1-49.1,41.8c-0.2,0-0.4,0-0.6,0h-75.8c-0.2,0-0.4,0-0.6,0c-3.8-23.7-24.3-41.8-49.1-41.8   C53.3,40.7,31,63,31,90.4c0,27.5,22.3,49.7,49.7,49.7c24.7,0,45.3-18.1,49.1-41.8c0.2,0,0.4,0,0.6,0h75.8c0.2,0,0.4,0,0.6,0   c3.8,23.7,24.3,41.8,49.1,41.8s45.3-18.1,49.1-41.8c0.2,0,0.4,0,0.6,0h75.8c0.2,0,0.4,0,0.6,0c1.2,7.3,3.9,14.1,7.9,19.9   c-0.2,0.1-0.3,0.3-0.5,0.4l-103,97.3c-0.2,0.2-0.3,0.3-0.5,0.5c-8.4-6.4-18.8-10.2-30.2-10.2c-27.5,0-49.7,22.3-49.7,49.7   c0,10.3,3.2,19.9,8.6,27.9c-0.2,0.1-0.3,0.3-0.5,0.4l-103,97.3c-0.2,0.2-0.3,0.3-0.5,0.5c-8.4-6.4-18.8-10.2-30.2-10.2   c-27.5,0-49.7,22.3-49.7,49.7s22.3,49.7,49.7,49.7c24.7,0,45.3-18.1,49.1-41.8c0.2,0,0.4,0,0.6,0h75.8c0.2,0,0.4,0,0.6,0   c3.8,23.7,24.3,41.8,49.1,41.8s45.3-18.1,49.1-41.8c0.2,0,0.4,0,0.6,0h75.8c0.2,0,0.4,0,0.6,0c3.8,23.7,24.3,41.8,49.1,41.8   c27.5,0,49.7-22.3,49.7-49.7S458.7,371.8,431.3,371.8z"/></g></svg>