<svg version="1.1" id="Uploaded to svgrepo.com" xmlns="http://www.w3.org/2000/svg" xmlns:xlink="http://www.w3.org/1999/xlink" x="0px" y="0px"
	 width="32px" height="32px" viewBox="0 0 32 32" style="enable-background:new 0 0 32 32;" xml:space="preserve">
<style type="text/css">
	.feather_een{fill:#0B1719;}
</style>
<path class="feather_een" d="M19.621,14.106C18.919,14.259,17.567,14.5,16,14.5s-2.919-0.241-3.621-0.394
	c-0.281-0.061-0.451-0.347-0.374-0.624c0.071-0.255,0.327-0.411,0.585-0.355C13.244,13.269,14.533,13.5,16,13.5
	s2.756-0.231,3.41-0.373c0.258-0.056,0.514,0.1,0.585,0.355C20.073,13.759,19.902,14.044,19.621,14.106z M31,16
	c0,9.067-6.716,11-15,11C7.716,27,1,25.067,1,16C1,9.373,7.716,6,16,6C24.284,6,31,9.373,31,16z M29.383,19.988
	C28.61,19.928,28,19.288,28,18.5V18c0-0.552-0.448-1-1-1c-0.552,0-1,0.448-1,1v1c0,1.105-0.895,2-2,2s-2-0.895-2-2v-1
	c0-0.552-0.448-1-1-1s-1,0.448-1,1v0c0,0.552-0.448,1-1,1h-2c-0.552,0-1,0.448-1,1v0.5c0,0.828-0.672,1.5-1.5,1.5S13,21.328,13,20.5
	V19c0-0.552-0.448-1-1-1s-1,0.448-1,1c0,1.105-0.895,2-2,2H8c-1.105,0-2-0.896-2-2l0-1c0-0.552-0.448-1-1-1h0c-0.552,0-1,0.448-1,1
	v0.5c0,0.788-0.61,1.428-1.383,1.488C4.091,24.153,8.312,26,16,26C23.688,26,27.909,24.153,29.383,19.988z M29.715,18.812
	C29.899,17.955,30,17.026,30,16c0-6.643-7.542-9-14-9C9.542,7,2,9.357,2,16c0,1.106,0.117,2.101,0.331,3.011l0.021-0.037
	C2.397,18.987,2.444,19,2.5,19C2.776,19,3,18.776,3,18.5V18c0-1.103,0.897-2,2-2c0.534,0,1.037,0.208,1.414,0.586
	C6.792,16.964,7,17.466,7,18l0,1c0,0.267,0.104,0.518,0.293,0.707S7.733,20,8,20h1c0.551,0,1-0.449,1-1c0-1.103,0.897-2,2-2
	c1.103,0,2,0.897,2,2v1.5c0,0.276,0.224,0.5,0.5,0.5s0.5-0.224,0.5-0.5V20c0-1.103,0.897-2,2-2h2c0-1.103,0.897-2,2-2
	c1.103,0,2,0.897,2,2v1c0,0.551,0.449,1,1,1s1-0.449,1-1v-1c0-1.103,0.897-2,2-2c1.103,0,2,0.897,2,2v0.5c0,0.276,0.224,0.5,0.5,0.5
	c0.067,0,0.125-0.013,0.175-0.032c0.015-0.062,0.019-0.129,0.033-0.192L29.715,18.812z"/>
</svg>