<?xml version="1.0" encoding="iso-8859-1"?>
<!-- Generator: Adobe Illustrator 19.0.0, SVG Export Plug-In . SVG Version: 6.00 Build 0)  -->
<svg version="1.1" id="Layer_1" xmlns="http://www.w3.org/2000/svg" xmlns:xlink="http://www.w3.org/1999/xlink" x="0px" y="0px"
	 viewBox="0 0 512 512" style="enable-background:new 0 0 512 512;" xml:space="preserve">
<g>
	<g>
		<circle cx="288.681" cy="384" r="8.17"/>
	</g>
</g>
<g>
	<g>
		<circle cx="321.362" cy="416.681" r="8.17"/>
	</g>
</g>
<g>
	<g>
		<path d="M256,0c-67.576,0-122.553,54.977-122.553,122.553v155.234c0,4.512,3.658,8.17,8.17,8.17c4.512,0,8.17-3.658,8.17-8.17
			V122.553C149.787,63.987,197.434,16.34,256,16.34c58.566,0,106.213,47.646,106.213,106.213v343.149
			c0,16.519-13.438,29.957-29.957,29.957c-16.519,0-29.957-13.438-29.957-29.957c0-4.512-3.658-8.17-8.17-8.17
			c-4.512,0-8.17,3.658-8.17,8.17c0,16.519-13.438,29.957-29.957,29.957s-29.957-13.438-29.957-29.957c0-4.512-3.658-8.17-8.17-8.17
			c-4.512,0-8.17,3.658-8.17,8.17c0,16.519-13.438,29.957-29.957,29.957s-29.957-13.438-29.957-29.957V310.468
			c0-4.512-3.658-8.17-8.17-8.17c-4.512,0-8.17,3.658-8.17,8.17v155.234c0,25.529,20.769,46.298,46.298,46.298
			c15.796,0,29.769-7.951,38.128-20.061C226.231,504.049,240.204,512,256,512c15.796,0,29.769-7.951,38.128-20.061
			C302.486,504.049,316.46,512,332.255,512c25.529,0,46.298-20.769,46.298-46.298V122.553C378.553,54.977,323.576,0,256,0z"/>
	</g>
</g>
<g>
	<g>
		<path d="M280.511,157.957c-4.512,0-8.17,3.658-8.17,8.17c0,9.01-7.33,16.34-16.34,16.34c-9.01,0-16.34-7.33-16.34-16.34
			c0-4.512-3.658-8.17-8.17-8.17s-8.17,3.658-8.17,8.17c0,18.02,14.661,32.681,32.681,32.681s32.681-14.661,32.681-32.681
			C288.681,161.616,285.023,157.957,280.511,157.957z"/>
	</g>
</g>
<g>
	<g>
		<path d="M231.489,103.489c-4.512,0-8.17,3.658-8.17,8.17v21.787c0,4.512,3.658,8.17,8.17,8.17s8.17-3.658,8.17-8.17V111.66
			C239.66,107.147,236.001,103.489,231.489,103.489z"/>
	</g>
</g>
<g>
	<g>
		<path d="M280.511,103.489c-4.512,0-8.17,3.658-8.17,8.17v21.787c0,4.512,3.658,8.17,8.17,8.17c4.512,0,8.17-3.658,8.17-8.17
			V111.66C288.681,107.147,285.023,103.489,280.511,103.489z"/>
	</g>
</g>
<g>
</g>
<g>
</g>
<g>
</g>
<g>
</g>
<g>
</g>
<g>
</g>
<g>
</g>
<g>
</g>
<g>
</g>
<g>
</g>
<g>
</g>
<g>
</g>
<g>
</g>
<g>
</g>
<g>
</g>
</svg>
