<?xml version="1.0" encoding="iso-8859-1"?>
<!-- Generator: Adobe Illustrator 18.0.0, SVG Export Plug-In . SVG Version: 6.00 Build 0)  -->
<!DOCTYPE svg PUBLIC "-//W3C//DTD SVG 1.1//EN" "http://www.w3.org/Graphics/SVG/1.1/DTD/svg11.dtd">
<svg version="1.1" id="Capa_1" xmlns="http://www.w3.org/2000/svg" xmlns:xlink="http://www.w3.org/1999/xlink" x="0px" y="0px"
	 viewBox="0 0 261.145 261.145" style="enable-background:new 0 0 261.145 261.145;" xml:space="preserve">
<g>
	<path d="M247.126,45.005c-2.259-8.475-11.085-10.219-16.97-6.398c-0.194-4.207-1.814-7.991-6.328-9.144
		c-0.014-0.017-0.022-0.037-0.036-0.055c-0.518-0.636-1.543-0.806-2.292-0.606c-0.302,0.081-0.551,0.224-0.831,0.333
		c-4.768,0.222-7.863,3.766-8.797,8.061c-3.665-5.166-12.999-7.702-17.409-3.222c-3.145,3.195-0.965,8.308,1.296,11.347
		c2.795,3.755,7.008,6.023,11.684,6.122c0.052,0.001,0.092-0.021,0.142-0.026c0.386,7.532,0.603,14.082-3.539,20.894
		c-3.211,5.282-8.279,9.013-13.985,11.089c-2.042,0.521-4.085,1.043-6.128,1.564c2.158-10.118,3.166-20.03,2.053-29.564
		c-4.571-39.153-35.398-60.157-73.794-54.485c-34.999,5.17-57.109,32.273-62.87,64.906c-8.605-5.515-11.156-14.608-8.597-24.591
		c6.096,6.025,17.93-0.855,16.908-9.329c-0.707-5.869-6.468-8.275-10.982-6.617c-0.358-3.643-2.582-7.053-6.502-7.814
		c-3.947-0.767-7.675,1.972-8.906,5.494c-3.607-3.441-10.089-4.114-14.156-0.269c-6.835,6.463-2.597,16.967,5.897,18.77
		c-6.568,18.199,5.896,37.713,24.738,40.863c0,0.008-0.001,0.017-0.001,0.025c-0.196,27.044,10.747,50.271,18.755,75.444
		c7.005,22.018,3.847,39.482-10.709,57.556c-2.864,3.556-5.333,6.4-7.284,9.582c-0.006,0.002-0.012,0.001-0.018,0.003
		c-8.116,3.203-6.722,14.579-0.649,19.107c7.196,5.366,16.083,2.396,21.438-3.855c-1.414,8.939,3.234,17.314,13.203,17.541
		c6.925,0.158,13.423-4.34,17.275-10.285c0.608,6.526,3.605,12.663,10.903,13.58c8.636,1.085,14.432-5.5,16.286-13.069
		c4.351,7.445,12.676,12.026,21.888,8.858c6.625-2.278,11.206-9.798,10.58-16.546c6.232,3.307,14.482,3.007,19.52-2.596
		c7.582-8.434,0.343-20.174-8.807-23.712c-0.015-0.022-0.013-0.042-0.028-0.064c-23.618-33.573-1.322-75.305,10.298-115.125
		c23.061,5.688,49.994-12.909,48.422-37.388C237.736,67.433,249.585,54.232,247.126,45.005z M178.526,92.194
		c-0.367,0.269-0.564,0.703-0.556,1.159c-0.004,0.228,0.049,0.447,0.139,0.652c-1.743,7.381-3.935,14.659-6.237,21.73
		c-10.132,31.125-28.221,70.527-5.796,100.501c0.314,0.42,0.709,0.65,1.121,0.802c4.152,4.003,12.102,7.124,10.001,14.333
		c-3.217,11.038-19.371,6.311-22.435-2.174c-0.773-2.14-3.934-1.314-3.433,0.947c0.129,0.581,0.318,1.131,0.513,1.678
		c-0.653,0.617-0.962,1.6-0.384,2.437c4.993,7.237,4.041,16.933-6.146,18.943c-8.648,1.706-15.144-4.866-17.848-12.325
		c-0.023-0.261-0.03-0.525-0.065-0.783c-0.068-0.512-0.297-0.903-0.581-1.231c-0.276-1.022-1.54-1.238-2.303-0.787
		c-0.834,0.181-1.521,0.82-1.486,2.018c0.213,7.288-2.901,18.761-12.766,16.457c-6.976-1.629-7.093-10.421-7.409-16.485
		c0.064-0.304,0.185-0.601,0.233-0.906c0.335-2.099-2.346-3.521-3.58-1.51c-3.583,5.84-5.719,12.962-13.15,15.098
		c-2.861,0.822-6.1,0.652-8.75-0.719c-5.006-2.59-5.139-7.868-4.84-12.809c0.085-1.418-1.574-1.999-2.593-1.426
		c-0.48-0.813-1.753-1.265-2.568-0.463c-4.012,3.943-9.873,6.657-15.339,3.897c-3.551-1.793-4.695-4.493-4.418-7.368
		c7.567-17.743,23.977-26.143,26.899-46.959c2.463-17.547-4.863-33.029-10.767-49.111C46.565,90.35,46.08,20.513,107.354,6.603
		c30.224-6.861,60.887,4.081,70.899,35.218C183.566,58.345,182.281,75.514,178.526,92.194z"/>
	<path d="M112.065,31.364c-0.097-0.876-0.737-1.496-1.466-1.764c-0.335-0.243-0.723-0.479-1.108-0.709
		c-0.235-0.812-1.123-1.448-2.164-0.991c-7.321,3.211-13.412,8.996-17.05,16.132c-2.871,5.631-4.717,14.074,1.824,18.013
		c5.905,3.557,11.664-1.739,14.699-6.522C110.962,48.968,112.913,39.031,112.065,31.364z"/>
	<path d="M123.355,25.289c-1.448-0.284-2.69,1.139-2.591,2.365c-0.154,0.106-0.292,0.243-0.39,0.443
		c-0.174,0.356-0.345,0.721-0.517,1.082c-3.268,1.946-4.416,7.799-4.815,11.149c-0.105,0.88-0.089,1.747-0.097,2.616
		c-1.309,6.237-1.15,12.62,2.024,18.501c4.683,8.676,15.51,12.576,24.587,8.401C166.587,58.333,140.477,28.644,123.355,25.289z"/>
	<path d="M82.8,112.294c0.087,1.071,0.975,1.396,1.691,1.113c0.289,0.548,0.746,1.102,1.542,2.026
		c0.266,0.308,0.593,0.438,0.929,0.485c1.612,1.828,4.029,2.793,7.447,2.604c3.591-0.199,5.825-2.576,9.011-3.545
		c9.614-2.923,14.695-0.182,21.361,6.132c10.153,9.617,24.918,6.319,24.49-9.69C148.254,73.28,79.402,70.838,82.8,112.294z"/>
</g>
<g>
</g>
<g>
</g>
<g>
</g>
<g>
</g>
<g>
</g>
<g>
</g>
<g>
</g>
<g>
</g>
<g>
</g>
<g>
</g>
<g>
</g>
<g>
</g>
<g>
</g>
<g>
</g>
<g>
</g>
</svg>
