<?xml version="1.0" encoding="iso-8859-1"?>
<!-- Generator: Adobe Illustrator 19.0.0, SVG Export Plug-In . SVG Version: 6.00 Build 0)  -->
<svg version="1.1" id="Layer_1" xmlns="http://www.w3.org/2000/svg" xmlns:xlink="http://www.w3.org/1999/xlink" x="0px" y="0px"
	 viewBox="0 0 496 496" style="enable-background:new 0 0 496 496;" xml:space="preserve">
<g>
	<g>
		<g>
			<path d="M188,152c17.648,0,32-14.352,32-32s-14.352-32-32-32s-32,14.352-32,32S170.352,152,188,152z M188,104
				c8.824,0,16,7.176,16,16s-7.176,16-16,16c-8.824,0-16-7.176-16-16C172,111.176,179.176,104,188,104z"/>
			<path d="M316,152c17.648,0,32-14.352,32-32s-14.352-32-32-32s-32,14.352-32,32S298.352,152,316,152z M316,104
				c8.824,0,16,7.176,16,16s-7.176,16-16,16c-8.824,0-16-7.176-16-16C300,111.176,307.176,104,316,104z"/>
			<path d="M316,176c-9.888,0-15.256,2.688-19.576,4.84C292.76,182.68,290.112,184,284,184s-8.76-1.32-12.424-3.16
				c-4.32-2.152-9.688-4.84-19.576-4.84s-15.256,2.688-19.576,4.84C228.76,182.68,226.112,184,220,184s-8.76-1.32-12.424-3.16
				c-4.32-2.152-9.688-4.84-19.576-4.84c-19.872,0-40,10.992-40,32s20.128,32,40,32c9.888,0,15.256-2.688,19.576-4.84
				c3.664-1.84,6.312-3.16,12.424-3.16s8.76,1.32,12.424,3.16c4.32,2.152,9.688,4.84,19.576,4.84s15.256-2.688,19.576-4.84
				c3.664-1.84,6.312-3.16,12.424-3.16s8.76,1.32,12.424,3.16c4.32,2.152,9.688,4.84,19.576,4.84c19.872,0,40-10.992,40-32
				S335.872,176,316,176z M316,224c-6.112,0-8.76-1.32-12.424-3.16c-4.32-2.152-9.688-4.84-19.576-4.84s-15.256,2.688-19.576,4.84
				C260.76,222.68,258.112,224,252,224s-8.76-1.32-12.424-3.16c-4.32-2.152-9.688-4.84-19.576-4.84s-15.256,2.688-19.576,4.84
				C196.76,222.68,194.112,224,188,224c-8.304,0-24-3.344-24-16s15.696-16,24-16c6.112,0,8.76,1.32,12.424,3.16
				c4.32,2.152,9.688,4.84,19.576,4.84s15.256-2.688,19.576-4.84c3.664-1.84,6.312-3.16,12.424-3.16s8.76,1.32,12.424,3.16
				c4.32,2.152,9.688,4.84,19.576,4.84s15.256-2.688,19.576-4.84c3.664-1.84,6.312-3.16,12.424-3.16c8.304,0,24,3.344,24,16
				S324.304,224,316,224z"/>
			<path d="M460.76,304c17.224,0,31.24-14.016,31.24-31.24v-11.408C492,240.76,475.24,224,454.648,224c-2.264,0-4.52,0.2-6.68,0.608
				L404,232.6V152C404,68.184,335.816,0,252,0S100,68.184,100,152v82.056l-51.936-9.448C45.872,224.2,43.616,224,41.352,224
				C20.76,224,4,240.76,4,261.352v11.408C4,289.984,18.016,304,35.24,304c12.832,0,24.24-7.792,28.984-19.568l28.112,18.744
				c-10.328,36.936-29.456,56.344-44.968,72.008C32.68,390.008,20,402.824,20,424c0,24.784,23.296,40,40,40
				c13.048,0,19.536-4.232,25.264-7.976C91.592,451.896,97.568,448,116,448c28.68,0,42.752,9.968,59.04,21.504
				C192.568,481.92,212.432,496,252,496s59.432-14.08,76.96-26.496C345.248,457.968,359.32,448,388,448
				c18.432,0,24.408,3.896,30.736,8.024C424.464,459.768,430.952,464,444,464c16.704,0,40-15.216,40-40
				c0-21.176-12.68-33.992-27.368-48.824c-16.192-16.36-36.16-36.616-46.16-76.552l21.304-14.2
				C436.512,296.208,447.928,304,460.76,304z M368.432,326.656l27.968-18.648c11.52,40.64,32.904,62.304,48.864,78.432
				C458.464,399.768,468,409.4,468,424c0,15.528-15.848,24-24,24c-8.288,0-11.56-2.144-16.52-5.376
				C420.216,437.888,411.192,432,388,432c-33.776,0-51.32,12.432-68.288,24.456C302.616,468.56,286.48,480,252,480
				c-34.48,0-50.616-11.44-67.712-23.544C167.32,444.432,149.776,432,116,432c-23.192,0-32.216,5.888-39.48,10.624
				C71.56,445.856,68.288,448,60,448c-8.152,0-24-8.472-24-24c0-14.6,9.536-24.232,22.736-37.56
				c16.144-16.304,35.912-36.328,47.552-73.968l21.272,14.184l8.872-13.312l-80.704-53.808l-6.016,18.032
				C47.624,283.816,41.816,288,35.24,288C26.832,288,20,281.168,20,272.76v-11.408c0-13.048,12.16-23.416,25.168-21.008l85.4,15.52
				l2.856-15.736L116,236.96V152c0-74.992,61.008-136,136-136s136,61.008,136,136v83.512l-25.432,4.624l2.856,15.736l85.432-15.52
				c1.248-0.24,2.52-0.352,3.792-0.352c11.776,0,21.352,9.576,21.352,21.352v11.408c0,8.408-6.832,15.24-15.24,15.24
				c-6.568,0-12.384-4.184-14.472-10.432l-6.016-18.032l-80.712,53.808L368.432,326.656z"/>
			<path d="M252,448c-34.832,0-48.808-19.656-49.344-20.44l-13.312,8.872C190.096,437.56,208.216,464,252,464
				s61.904-26.44,62.656-27.56l-13.312-8.872C301.208,427.768,287.312,448,252,448z"/>
		</g>
	</g>
</g>
<g>
</g>
<g>
</g>
<g>
</g>
<g>
</g>
<g>
</g>
<g>
</g>
<g>
</g>
<g>
</g>
<g>
</g>
<g>
</g>
<g>
</g>
<g>
</g>
<g>
</g>
<g>
</g>
<g>
</g>
</svg>
