<svg width="96px" height="96px" viewBox="0 0 96 96" xmlns="http://www.w3.org/2000/svg" xmlns:xlink="http://www.w3.org/1999/xlink">
  <defs>
    <clipPath id="clip-file">
      <rect width="96" height="96"/>
    </clipPath>
  </defs>
  <g id="file" clip-path="url(#clip-file)">
    <g id="pills">
      <g id="Group_160" data-name="Group 160">
        <path id="Path_191" data-name="Path 191" d="M10,84V12a8,8,0,0,1,8-8H62.563A8.3,8.3,0,0,1,68.43,6.43L83.57,21.57A8.3,8.3,0,0,1,86,27.437V84a8,8,0,0,1-8,8H18A8,8,0,0,1,10,84Z" fill="none" stroke="#58595b" stroke-linecap="round" stroke-miterlimit="10" stroke-width="4"/>
        <path id="Path_192" data-name="Path 192" d="M64,5V17a8,8,0,0,0,8,8H84" fill="none" stroke="#58595b" stroke-linecap="round" stroke-miterlimit="10" stroke-width="4"/>
        <g id="Group_159" data-name="Group 159">
          <line id="Line_26" data-name="Line 26" x2="42" transform="translate(27 46)" fill="none" stroke="#58595b" stroke-linecap="round" stroke-miterlimit="10" stroke-width="4"/>
          <line id="Line_27" data-name="Line 27" x2="42" transform="translate(27 69)" fill="none" stroke="#58595b" stroke-linecap="round" stroke-miterlimit="10" stroke-width="4"/>
        </g>
      </g>
    </g>
  </g>
</svg>
