<?xml version="1.0" encoding="iso-8859-1"?>
<!-- Generator: Adobe Illustrator 19.0.0, SVG Export Plug-In . SVG Version: 6.00 Build 0)  -->
<svg version="1.1" id="Layer_1" xmlns="http://www.w3.org/2000/svg" xmlns:xlink="http://www.w3.org/1999/xlink" x="0px" y="0px"
	 viewBox="0 0 512 512" style="enable-background:new 0 0 512 512;" xml:space="preserve">
<g>
	<path style="fill:#A5EB78;" d="M379.586,44.138H194.207c-9.751,0-17.655-7.904-17.655-17.655l0,0
		c0-9.751,7.904-17.655,17.655-17.655h185.379c9.751,0,17.655,7.904,17.655,17.655l0,0
		C397.241,36.234,389.337,44.138,379.586,44.138z"/>
	<path style="fill:#A5EB78;" d="M70.621,0C31.618,0,0,31.618,0,70.621s31.618,70.621,70.621,70.621s70.621-31.618,70.621-70.621
		S109.623,0,70.621,0z M112.172,53.323L65.09,100.401c-1.725,1.725-3.982,2.586-6.241,2.586c-2.259,0-4.518-0.862-6.241-2.586
		L29.069,76.862c-3.448-3.448-3.448-9.035,0-12.483c3.448-3.448,9.035-3.448,12.483,0l17.297,17.299L99.69,40.841
		c3.448-3.448,9.035-3.448,12.483,0C115.622,44.289,115.62,49.875,112.172,53.323z"/>
</g>
<g>
	<path style="fill:#AFB9D2;" d="M467.862,88.276H291.31c-4.875,0-8.828-3.953-8.828-8.828c0-4.875,3.953-8.828,8.828-8.828h176.552
		c4.875,0,8.828,3.953,8.828,8.828C476.69,84.323,472.737,88.276,467.862,88.276z"/>
	<path style="fill:#AFB9D2;" d="M256.004,88.276h-70.625c-4.875,0-8.828-3.953-8.828-8.828c0-4.875,3.953-8.828,8.828-8.828h70.625
		c4.875,0,8.828,3.953,8.828,8.828C264.832,84.323,260.879,88.276,256.004,88.276z"/>
</g>
<g>
	<path style="fill:#C7CFE2;" d="M503.172,123.586h-52.966c-4.875,0-8.828-3.953-8.828-8.828c0-4.875,3.953-8.828,8.828-8.828h52.966
		c4.875,0,8.828,3.953,8.828,8.828C512,119.634,508.047,123.586,503.172,123.586z"/>
	<path style="fill:#C7CFE2;" d="M414.892,123.586H185.379c-4.875,0-8.828-3.953-8.828-8.828c0-4.875,3.953-8.828,8.828-8.828
		h229.513c4.875,0,8.828,3.953,8.828,8.828C423.72,119.634,419.767,123.586,414.892,123.586z"/>
</g>
<g>
	<path style="fill:#A5EB78;" d="M379.586,229.517H194.207c-9.751,0-17.655-7.904-17.655-17.655l0,0
		c0-9.751,7.904-17.655,17.655-17.655h185.379c9.751,0,17.655,7.904,17.655,17.655l0,0
		C397.241,221.613,389.337,229.517,379.586,229.517z"/>
	<path style="fill:#A5EB78;" d="M70.621,185.379C31.618,185.379,0,216.998,0,256s31.618,70.621,70.621,70.621
		s70.621-31.618,70.621-70.621S109.623,185.379,70.621,185.379z M112.172,238.702L65.09,285.78
		c-1.725,1.725-3.982,2.586-6.241,2.586c-2.259,0-4.518-0.862-6.241-2.586l-23.539-23.539c-3.448-3.448-3.448-9.035,0-12.483
		c3.448-3.448,9.035-3.448,12.483,0l17.298,17.298l40.841-40.836c3.448-3.448,9.035-3.448,12.483,0
		C115.623,229.667,115.62,235.254,112.172,238.702z"/>
</g>
<g>
	<path style="fill:#AFB9D2;" d="M467.862,273.655H291.31c-4.875,0-8.828-3.953-8.828-8.828S286.435,256,291.31,256h176.552
		c4.875,0,8.828,3.953,8.828,8.828S472.737,273.655,467.862,273.655z"/>
	<path style="fill:#AFB9D2;" d="M256.004,273.655h-70.625c-4.875,0-8.828-3.953-8.828-8.828s3.953-8.828,8.828-8.828h70.625
		c4.875,0,8.828,3.953,8.828,8.828S260.879,273.655,256.004,273.655z"/>
</g>
<g>
	<path style="fill:#C7CFE2;" d="M503.172,308.966h-52.966c-4.875,0-8.828-3.953-8.828-8.828s3.953-8.828,8.828-8.828h52.966
		c4.875,0,8.828,3.953,8.828,8.828S508.047,308.966,503.172,308.966z"/>
	<path style="fill:#C7CFE2;" d="M414.892,308.966H185.379c-4.875,0-8.828-3.953-8.828-8.828s3.953-8.828,8.828-8.828h229.513
		c4.875,0,8.828,3.953,8.828,8.828S419.767,308.966,414.892,308.966z"/>
</g>
<g>
	<path style="fill:#EFF2FA;" d="M353.103,414.897H194.207c-9.751,0-17.655-7.904-17.655-17.655l0,0
		c0-9.751,7.904-17.655,17.655-17.655h158.897c9.751,0,17.655,7.904,17.655,17.655l0,0
		C370.759,406.993,362.855,414.897,353.103,414.897z"/>
	<path style="fill:#EFF2FA;" d="M70.621,370.759C31.618,370.759,0,402.377,0,441.379S31.618,512,70.621,512
		s70.621-31.618,70.621-70.621S109.623,370.759,70.621,370.759z"/>
</g>
<g>
	<path style="fill:#AFB9D2;" d="M467.862,459.034H291.31c-4.875,0-8.828-3.953-8.828-8.828c0-4.875,3.953-8.828,8.828-8.828h176.552
		c4.875,0,8.828,3.953,8.828,8.828C476.69,455.082,472.737,459.034,467.862,459.034z"/>
	<path style="fill:#AFB9D2;" d="M256.004,459.034h-70.625c-4.875,0-8.828-3.953-8.828-8.828c0-4.875,3.953-8.828,8.828-8.828h70.625
		c4.875,0,8.828,3.953,8.828,8.828C264.832,455.082,260.879,459.034,256.004,459.034z"/>
</g>
<g>
	<path style="fill:#C7CFE2;" d="M503.172,494.345h-52.966c-4.875,0-8.828-3.953-8.828-8.828s3.953-8.828,8.828-8.828h52.966
		c4.875,0,8.828,3.953,8.828,8.828S508.047,494.345,503.172,494.345z"/>
	<path style="fill:#C7CFE2;" d="M414.892,494.345H185.379c-4.875,0-8.828-3.953-8.828-8.828s3.953-8.828,8.828-8.828h229.513
		c4.875,0,8.828,3.953,8.828,8.828S419.767,494.345,414.892,494.345z"/>
</g>
<g>
</g>
<g>
</g>
<g>
</g>
<g>
</g>
<g>
</g>
<g>
</g>
<g>
</g>
<g>
</g>
<g>
</g>
<g>
</g>
<g>
</g>
<g>
</g>
<g>
</g>
<g>
</g>
<g>
</g>
</svg>
