<svg width="124" height="124" viewBox="0 0 124 124" fill="none" xmlns="http://www.w3.org/2000/svg">
<g clip-path="url(#clip0_310_17)">
<path d="M91.9309 10.6897H47.0345C44.6729 10.6897 42.7587 8.77545 42.7587 6.41388C42.7587 4.05231 44.6729 2.13806 47.0345 2.13806H91.9309C94.2925 2.13806 96.2068 4.05231 96.2068 6.41388C96.2068 8.77545 94.2925 10.6897 91.9309 10.6897Z" fill="#004B93"/>
<path d="M17.1035 0C7.65748 0 0 7.65748 0 17.1035C0 26.5496 7.65748 34.207 17.1035 34.207C26.5496 34.207 34.207 26.5496 34.207 17.1035C34.207 7.65748 26.5493 0 17.1035 0ZM27.1667 12.9142L15.764 24.3159C15.3462 24.7336 14.7996 24.9422 14.2525 24.9422C13.7054 24.9422 13.1583 24.7334 12.741 24.3159L7.04015 18.615C6.20509 17.78 6.20509 16.4268 7.04015 15.5918C7.87521 14.7567 9.22831 14.7567 10.0634 15.5918L14.2525 19.7814L24.1437 9.89118C24.9787 9.05612 26.3318 9.05612 27.1669 9.89118C28.0022 10.7262 28.0017 12.0791 27.1667 12.9142Z" fill="#004B93"/>
<path d="M113.31 21.3793H70.5516C69.3709 21.3793 68.4136 20.422 68.4136 19.2413C68.4136 18.0606 69.3709 17.1033 70.5516 17.1033H113.31C114.491 17.1033 115.448 18.0606 115.448 19.2413C115.448 20.422 114.491 21.3793 113.31 21.3793Z" fill="#AFB9D2"/>
<path d="M62.001 21.3793H44.8965C43.7158 21.3793 42.7584 20.422 42.7584 19.2413C42.7584 18.0606 43.7158 17.1033 44.8965 17.1033H62.001C63.1816 17.1033 64.139 18.0606 64.139 19.2413C64.139 20.422 63.1816 21.3793 62.001 21.3793Z" fill="#AFB9D2"/>
<path d="M121.862 29.931H109.034C107.854 29.931 106.896 28.9736 106.896 27.7929C106.896 26.6123 107.854 25.6549 109.034 25.6549H121.862C123.043 25.6549 124 26.6123 124 27.7929C124 28.9738 123.043 29.931 121.862 29.931Z" fill="#C7CFE2"/>
<path d="M100.482 29.931H44.8965C43.7158 29.931 42.7584 28.9736 42.7584 27.7929C42.7584 26.6123 43.7158 25.6549 44.8965 25.6549H100.482C101.662 25.6549 102.62 26.6123 102.62 27.7929C102.62 28.9738 101.662 29.931 100.482 29.931Z" fill="#C7CFE2"/>
<path d="M91.9309 55.5862H47.0345C44.6729 55.5862 42.7587 53.6719 42.7587 51.3104C42.7587 48.9488 44.6729 47.0345 47.0345 47.0345H91.9309C94.2925 47.0345 96.2068 48.9488 96.2068 51.3104C96.2068 53.6719 94.2925 55.5862 91.9309 55.5862Z" fill="#004B93"/>
<path d="M17.1035 44.8965C7.65748 44.8965 0 52.5542 0 62C0 71.4458 7.65748 79.1035 17.1035 79.1035C26.5496 79.1035 34.207 71.446 34.207 62C34.207 52.554 26.5493 44.8965 17.1035 44.8965ZM27.1667 57.8106L15.764 69.2123C15.3462 69.6301 14.7996 69.8386 14.2525 69.8386C13.7054 69.8386 13.1583 69.6299 12.741 69.2123L7.04015 63.5115C6.20509 62.6764 6.20509 61.3233 7.04015 60.4883C7.87521 59.6532 9.22831 59.6532 10.0634 60.4883L14.2527 64.6776L24.1439 54.7877C24.979 53.9526 26.3321 53.9526 27.1671 54.7877C28.0024 55.6225 28.0017 56.9756 27.1667 57.8106Z" fill="#004B93"/>
<path d="M113.31 66.2758H70.5516C69.3709 66.2758 68.4136 65.3185 68.4136 64.1378C68.4136 62.9571 69.3709 62 70.5516 62H113.31C114.491 62 115.448 62.9574 115.448 64.138C115.448 65.3187 114.491 66.2758 113.31 66.2758Z" fill="#AFB9D2"/>
<path d="M62.001 66.2758H44.8965C43.7158 66.2758 42.7584 65.3185 42.7584 64.1378C42.7584 62.9571 43.7158 61.9998 44.8965 61.9998H62.001C63.1816 61.9998 64.139 62.9571 64.139 64.1378C64.139 65.3185 63.1816 66.2758 62.001 66.2758Z" fill="#AFB9D2"/>
<path d="M121.862 74.8277H109.034C107.854 74.8277 106.896 73.8703 106.896 72.6897C106.896 71.509 107.854 70.5516 109.034 70.5516H121.862C123.043 70.5516 124 71.509 124 72.6897C124 73.8703 123.043 74.8277 121.862 74.8277Z" fill="#C7CFE2"/>
<path d="M100.482 74.8277H44.8965C43.7158 74.8277 42.7584 73.8703 42.7584 72.6897C42.7584 71.509 43.7158 70.5516 44.8965 70.5516H100.482C101.662 70.5516 102.62 71.509 102.62 72.6897C102.62 73.8703 101.662 74.8277 100.482 74.8277Z" fill="#C7CFE2"/>
<path d="M85.5171 100.483H47.0345C44.6729 100.483 42.7587 98.5687 42.7587 96.2071C42.7587 93.8455 44.6729 91.9313 47.0345 91.9313H85.5173C87.8789 91.9313 89.7932 93.8455 89.7932 96.2071C89.7932 98.5687 87.8789 100.483 85.5171 100.483Z" fill="#EFF2FA"/>
<path d="M17.1035 89.7932C7.65748 89.7932 0 97.4507 0 106.896C0 116.342 7.65748 124 17.1035 124C26.5496 124 34.207 116.343 34.207 106.896C34.207 97.4505 26.5493 89.7932 17.1035 89.7932Z" fill="#EFF2FA"/>
<path d="M113.31 111.172H70.5516C69.3709 111.172 68.4136 110.215 68.4136 109.034C68.4136 107.853 69.3709 106.896 70.5516 106.896H113.31C114.491 106.896 115.448 107.853 115.448 109.034C115.448 110.215 114.491 111.172 113.31 111.172Z" fill="#AFB9D2"/>
<path d="M62.001 111.172H44.8965C43.7158 111.172 42.7584 110.215 42.7584 109.034C42.7584 107.853 43.7158 106.896 44.8965 106.896H62.001C63.1816 106.896 64.139 107.853 64.139 109.034C64.139 110.215 63.1816 111.172 62.001 111.172Z" fill="#AFB9D2"/>
<path d="M121.862 119.724H109.034C107.854 119.724 106.896 118.767 106.896 117.586C106.896 116.405 107.854 115.448 109.034 115.448H121.862C123.043 115.448 124 116.405 124 117.586C124 118.767 123.043 119.724 121.862 119.724Z" fill="#C7CFE2"/>
<path d="M100.482 119.724H44.8965C43.7158 119.724 42.7584 118.767 42.7584 117.586C42.7584 116.405 43.7158 115.448 44.8965 115.448H100.482C101.662 115.448 102.62 116.405 102.62 117.586C102.62 118.767 101.662 119.724 100.482 119.724Z" fill="#C7CFE2"/>
</g>
<defs>
<clipPath id="clip0_310_17">
<rect width="124" height="124" fill="white"/>
</clipPath>
</defs>
</svg>
