<?xml version="1.0" ?><svg width="512px" height="512px" viewBox="0 0 512 512" id="Layer_1" style="enable-background:new 0 0 512 512;" version="1.1" xml:space="preserve" xmlns="http://www.w3.org/2000/svg" xmlns:xlink="http://www.w3.org/1999/xlink"><style type="text/css">
	.st0{fill:#2B79C2;}
	.st1{fill:#3B4652;}
	.st2{fill:#333333;}
</style><g><path class="st0" d="M389.3,231.1c0-5.5-4.5-10-10-10H132.7c-5.5,0-10,4.5-10,10v56.5c0,5.5,4.5,10,10,10h246.6c5.5,0,10-4.5,10-10   V231.1z M183.1,268.5h-29.3c-4.4,0-8-3.6-8-8s3.6-8,8-8h29.3c4.4,0,8,3.6,8,8S187.5,268.5,183.1,268.5z M341.7,275.9   c-9.1,0-16.6-7.4-16.6-16.6s7.4-16.6,16.6-16.6s16.6,7.4,16.6,16.6S350.8,275.9,341.7,275.9z"/><path class="st0" d="M379.3,329.4H132.7c-5.5,0-10,4.5-10,10V396c0,5.5,4.5,10,10,10h246.6c5.5,0,10-4.5,10-10v-56.5   C389.3,333.9,384.9,329.4,379.3,329.4z M183.1,376.8h-29.3c-4.4,0-8-3.6-8-8s3.6-8,8-8h29.3c4.4,0,8,3.6,8,8   S187.5,376.8,183.1,376.8z M341.7,384.3c-9.1,0-16.6-7.4-16.6-16.6s7.4-16.6,16.6-16.6s16.6,7.4,16.6,16.6S350.8,384.3,341.7,384.3   z"/><path class="st1" d="M212.1,458.1h-89.4c-30.7,0-55.6-25-55.6-55.6v-52c-2.6,0.5-5.3,0.7-8,0.7s-5.4-0.3-8-0.7v52   c0,39.5,32.1,71.6,71.6,71.6h89.3c-0.4-2.5-0.6-5-0.6-7.6c0-0.3,0-0.6,0-0.9C211.3,463.1,211.6,460.5,212.1,458.1z"/><path class="st1" d="M445,350.4v52c0,30.7-25,55.6-55.6,55.6h-89.4c0.5,2.4,0.7,5,0.8,7.5c0,0.3,0,0.6,0,0.9c0,2.6-0.2,5.1-0.6,7.6   h89.3c39.5,0,71.6-32.1,71.6-71.6v-52c-2.6,0.5-5.3,0.7-8,0.7S447.6,350.9,445,350.4z"/><path class="st1" d="M67,262.4v-52c0-30.7,25-55.6,55.6-55.6c0,0,0,0,0,0v24.5c0,5.5,4.5,10,10,10h246.6c5.5,0,10-4.5,10-10v-24.5   c0,0,0,0,0,0c30.7,0,55.6,25,55.6,55.6v52c2.6-0.5,5.3-0.7,8-0.7s5.4,0.3,8,0.7v-52c0-39.5-32.1-71.6-71.6-71.6c0,0,0,0,0,0v-16   c0-5.5-4.5-10-10-10H368c0-52.9-43.1-96-96-96h-32c-52.9,0-96,43.1-96,96h-11.3c-5.5,0-10,4.5-10,10v16c0,0,0,0,0,0   c-39.5,0-71.6,32.1-71.6,71.6v52c2.6-0.5,5.3-0.7,8-0.7S64.4,261.9,67,262.4z M183.1,160.1h-29.3c-4.4,0-8-3.6-8-8s3.6-8,8-8h29.3   c4.4,0,8,3.6,8,8S187.5,160.1,183.1,160.1z M341.7,167.6c-9.1,0-16.6-7.4-16.6-16.6s7.4-16.6,16.6-16.6s16.6,7.4,16.6,16.6   S350.8,167.6,341.7,167.6z M240,32.8h32c44.1,0,80,35.9,80,80H160C160,68.6,195.9,32.8,240,32.8z"/><path class="st1" d="M87.8,306.4c0-15.9-12.9-28.8-28.8-28.8s-28.8,12.9-28.8,28.8c0,15.9,12.9,28.8,28.8,28.8   S87.8,322.3,87.8,306.4z"/><path class="st1" d="M453,277.7c-15.9,0-28.8,12.9-28.8,28.8c0,15.9,12.9,28.8,28.8,28.8s28.8-12.9,28.8-28.8   C481.8,290.6,468.9,277.7,453,277.7z"/><path class="st1" d="M256,437.7c-15.8,0-28.5,12.6-28.7,28.4c0,0.1,0,0.3,0,0.4c0,15.9,12.9,28.8,28.8,28.8s28.8-12.9,28.8-28.8   c0-0.1,0-0.3,0-0.4C284.5,450.4,271.8,437.7,256,437.7z"/></g></svg>