<?xml version="1.0" encoding="iso-8859-1"?>
<!-- Generator: Adobe Illustrator 16.0.0, SVG Export Plug-In . SVG Version: 6.00 Build 0)  -->
<!DOCTYPE svg PUBLIC "-//W3C//DTD SVG 1.1//EN" "http://www.w3.org/Graphics/SVG/1.1/DTD/svg11.dtd">
<svg version="1.1" id="Capa_1" xmlns="http://www.w3.org/2000/svg" xmlns:xlink="http://www.w3.org/1999/xlink" x="0px" y="0px"
	 width="566.55px" height="566.55px" viewBox="0 0 566.55 566.55" style="enable-background:new 0 0 566.55 566.55;"
	 xml:space="preserve">
<g>
	<g>
		<path d="M447.193,504.886c74.664-63.036,110.772-164.934,49.572-262.242c-0.306-0.612-0.918-0.918-1.53-1.53
			c6.427-4.896,11.628-10.404,16.219-17.442c19.89-31.212-71.604-15.912-79.866-14.382c-72.522,12.852-142.29,18.666-215.425,5.508
			c-38.25-6.732-94.554-29.07-133.11-14.382c-2.142,0.918-3.978,2.754-3.978,5.202c0,10.404,1.224,10.404,7.956,16.218
			c-0.612,1.53-0.306,3.06,0.918,4.284c2.142,1.836,4.59,3.366,6.732,4.896c0,0-0.306,0-0.306,0.306
			c-97.92,80.784-52.938,199.206,30.294,271.422c-9.486,5.508-18.36,13.158-21.726,23.868c-2.448,8.262,0,17.748,6.732,23.256
			c7.038,5.814,16.218,6.12,24.48,3.366c9.792-3.366,23.256-13.771,25.704-24.48c28.764,18.36,59.976,30.906,90.27,35.496
			c54.774,7.956,110.466-5.202,157.59-32.13c9.792,16.524,31.518,22.645,48.348,11.016c6.732-4.59,12.546-12.546,11.628-21.113
			C467.389,513.454,456.679,501.826,447.193,504.886z M153.433,215.716c19.89,3.06,39.474,8.262,59.058,12.546
			c37.332,7.956,75.276,8.874,113.526,8.568c33.966-0.306,68.238-5.508,101.286-13.158c9.18-2.142,73.44-7.956,68.544-2.142
			c-33.354,41.31-136.782,25.092-183.906,24.174c-69.156-1.224-149.328,13.158-212.058-22.338c0.306-1.224,0-2.754-1.224-3.978
			C80.911,200.11,184.339,220.612,153.433,215.716z M143.947,532.732c-3.06,3.366-6.732,5.813-11.016,7.649
			c-4.59,2.143-10.098,2.143-14.076-0.611c-3.366-2.143-3.366-7.345-2.448-10.71c2.142-8.263,8.874-14.994,14.994-20.503
			c0,0,0-0.306,0.306-0.306c6.732,5.508,13.77,10.71,21.114,15.912C149.455,526.306,147.007,529.672,143.947,532.732z
			 M267.877,549.562c-147.492-2.448-278.154-190.639-166.158-311.508c0.612-0.612,0.918-1.224,1.224-2.142
			c62.73,37.944,150.246,23.562,220.015,25.092c42.228,0.918,114.75,10.404,159.731-12.546c0.307,0.612,0.307,0.918,0.612,1.53
			C573.265,408.802,422.407,552.316,267.877,549.562z M449.335,533.344c-4.896,3.672-11.322,5.509-17.442,4.591
			c-6.731-0.919-11.628-5.202-15.912-10.404c9.486-5.814,18.666-12.24,27.234-19.278c-0.612,1.224-0.612,3.061,0.306,4.284
			c3.061,4.59,10.404,4.59,11.935,10.098C456.374,526.612,451.783,531.202,449.335,533.344z"/>
		<path d="M229.933,184.81c-15.3-12.546-30.294-23.256-32.742-44.064c-1.836-15.912,0.612-32.436,0.306-48.348
			c-0.612-27.234-13.464-49.572-41.31-55.692c-7.956-1.836-13.158,9.18-5.508,13.464c19.278,10.404,28.764,19.584,30.294,42.228
			c1.224,16.218-1.224,32.436,0.306,48.348c2.448,25.398,21.726,41.004,43.146,51.714
			C228.708,194.602,234.217,188.176,229.933,184.81z"/>
		<path d="M310.412,96.376c-9.486-38.862-67.933-40.392-41.311-87.21c3.672-6.426-4.59-11.934-9.792-7.65
			c-34.884,30.6-5.202,57.222,20.196,79.866c31.518,28.458,2.754,46.512-13.158,72.522c-8.874,14.076,0.306,27.234,12.546,34.272
			c2.448,1.53,4.896-1.224,3.672-3.672C265.123,152.68,319.286,134.014,310.412,96.376z"/>
		<path d="M408.637,36.094c-2.142-4.59-8.874-2.754-10.098,1.224c-5.202,14.994,3.365,26.622,5.201,41.616
			c2.448,19.89-27.233,34.578-40.697,44.982c-22.032,17.136-20.809,39.78-2.143,58.446c3.672,3.672,9.792-0.918,7.038-5.508
			c-15.605-26.622-1.529-36.72,19.278-50.49c11.322-7.344,20.196-15.606,27.846-26.622
			C427.609,81.994,416.899,52.924,408.637,36.094z"/>
	</g>
</g>
<g>
</g>
<g>
</g>
<g>
</g>
<g>
</g>
<g>
</g>
<g>
</g>
<g>
</g>
<g>
</g>
<g>
</g>
<g>
</g>
<g>
</g>
<g>
</g>
<g>
</g>
<g>
</g>
<g>
</g>
</svg>
