<svg class="svg-icon" style="width: 1em;height: 1em;vertical-align: middle;fill: currentColor;overflow: hidden;" viewBox="0 0 1024 1024" version="1.1" xmlns="http://www.w3.org/2000/svg"><path d="M185.28 762.944L109.44 838.752l15.168 15.136 75.776-75.776-15.136-15.168z m-90.976 90.944l-15.136 15.168 15.136 15.168 15.168-15.168-15.168-15.168z m121.28-60.64l-121.28 121.28 15.168 15.168 121.28-121.28-15.168-15.168z m-136.416 136.448L64 944.864l15.168 15.136 15.136-15.136-15.136-15.168z m166.72-106.112l-90.944 90.944 15.168 15.168 90.944-90.944-15.168-15.168zM139.84 929.696l-15.168 15.168 15.168 15.136 15.136-15.136-15.136-15.168z" fill="#F05542" /><path d="M693.504 413.504a54.752 54.752 0 0 1-77.44 0 54.752 54.752 0 0 1 0-77.44 54.752 54.752 0 0 1 77.44 0 54.752 54.752 0 0 1 0 77.44z" fill="#F05542" /><path d="M729.6 291.776l-11.84-9.664-2.688-1.728-14.784-7.84-14.144-7.424-14.912 28.32 14.144 7.424 13.472 7.136 10.56 8.576 12.288 10.112 20.288-24.8z m2.336 53.088l1.536 15.936 1.312 13.984-1.408 14.848-1.504 15.904 31.808 3.104 1.568-15.968 1.536-16.384v-3.008l-1.44-15.52-1.568-15.936zM625.76 266.88l-11.712 3.52-2.912 1.152-16.704 8.832-2.656 1.76-0.736 0.576-12.384 10.08 20.224 24.832 11.776-9.632 13.856-7.36 10.304-3.008 15.36-4.576-9.088-30.72z m63.36 179.84l-4.16 2.208-14.72 4.384-5.664 0.512-15.968 1.536 3.072 31.872 15.936-1.536 7.04-0.672 3.04-0.576 17.76-5.312 2.912-1.152 5.632-2.944 14.176-7.456-14.88-28.352z m-136.224-121.184l-4.544 15.36-3.232 10.976-0.64 3.008-1.76 18.4v3.008l0.224 2.08 1.536 15.936 31.872-3.04-1.6-15.904v-0.48l1.472-15.296 2.784-9.6 4.576-15.328z m59.36 116.896l-1.44-0.8-12.576-10.304-4.864-5.92-10.176-12.384-24.736 20.256 10.08 12.384 5.856 7.2 2.24 2.24 15.136 12.288 2.656 1.76 2.88 1.536 14.176 7.456 14.88-28.32z" fill="#F05542" /><path d="M375.136 315.296c-54.72-6.72-114.24 12.96-169.6 51.68-73.728 51.648-141.984 137.376-188.224 245.568a16 16 0 0 0 24.512 18.944c66.944-51.936 119.296-79.552 156.16-85.824 36.896-6.272 57.568 4.16 75.648 35.616a16 16 0 0 0 28.544-1.568 1062.176 1062.176 0 0 1 131.2-224.544 16 16 0 0 0-5.504-24.064 161.504 161.504 0 0 0-52.736-15.808z m-51.264 33.28c24.992-4.48 47.52 1.6 69.632 8.64a1092.512 1092.512 0 0 0-110.816 190.272c-23.2-24.736-52.992-39.68-90.048-33.376-32.096 5.44-70.176 25.664-111.904 52.608 41.184-73.408 89.952-136.224 143.2-173.504 33.856-23.68 67.744-38.784 99.936-44.608z m354.88 238.784a16 16 0 0 0-9.888 3.296 1061.728 1061.728 0 0 1-224.48 131.264 16 16 0 0 0-1.632 28.48c31.456 18.08 41.952 38.784 35.68 75.648-6.272 36.864-33.92 89.216-85.856 156.16a16 16 0 0 0 18.912 24.576c108.192-46.208 193.92-114.56 245.568-188.288 51.648-73.792 69.536-155.04 35.872-222.336a16 16 0 0 0-14.176-8.8z m-11.936 43.2c16.064 50.56 6.08 109.44-36 169.536-37.28 53.28-100.032 102.08-173.504 143.264 26.976-41.728 47.168-79.872 52.64-111.936 6.304-37.12-8.64-66.88-33.376-90.08a1092.96 1092.96 0 0 0 190.24-110.816zM237.632 622.72l-10.208 18.752-34.912 64.064 128.352 127.2 79.936-46.88-163.2-163.136z m7.616 52.896l103.616 103.616-22.912 13.44-93.824-92.928 13.12-24.128z m473.824-580.48a16 16 0 0 0-11.2 27.52l197.632 198.144a16 16 0 1 0 22.688-22.56l-197.696-198.208a16 16 0 0 0-11.424-4.864z" fill="#2B4255" /><path d="M976 32c-92.16 0-176.768 19.264-253.44 51.808a16 16 0 0 0-1.568 0.8l-23.104 12.992c-210.464 106.72-356.896 303.968-433.152 489.12a16 16 0 0 0 3.52 17.376l151.552 151.616a16 16 0 0 0 17.44 3.456C551.776 712 672 638.016 772.512 538.56a16 16 0 1 0-22.528-22.752c-94.4 93.44-207.616 163.2-315.808 208.992l-135.104-135.168C373.888 413.12 514.208 226.56 712.32 126.144a16 16 0 0 0 0.64-0.32l22.528-12.672c67.84-28.736 142.4-45.024 222.752-47.36-2.24 80.768-17.696 156.704-46.4 224.416-0.064 0-0.064 0-0.096 0.32l-10.752 21.248a766.784 766.784 0 0 1-102.688 152.32 16 16 0 1 0 24.32 20.864 798.72 798.72 0 0 0 106.944-158.72l11.2-22.208a16 16 0 0 0 0.416-0.992C973.824 226.176 992 140.16 992 48.096a16 16 0 0 0-16-16z" fill="#2B4255" /></svg>